<mxfile host="app.diagrams.net" modified="2023-05-25T16:43:52.042Z" agent="Mozilla/5.0 (Windows NT 10.0; Win64; x64; rv:109.0) Gecko/20100101 Firefox/113.0" etag="_rh4AlCfBiisjTPln28m" version="21.3.4">
  <diagram name="Page-1" id="i8VYGbzjDTvlDY2MOO7E">
    <mxGraphModel dx="1434" dy="754" grid="1" gridSize="10" guides="1" tooltips="1" connect="1" arrows="1" fold="1" page="1" pageScale="1" pageWidth="827" pageHeight="1169" math="0" shadow="0">
      <root>
        <mxCell id="0" />
        <mxCell id="1" parent="0" />
        <mxCell id="6VzcK8M6HeqveQFIyyPi-1" value="Game" style="ellipse;whiteSpace=wrap;html=1;strokeColor=#004C99;" vertex="1" parent="1">
          <mxGeometry x="354" y="70" width="120" height="80" as="geometry" />
        </mxCell>
        <mxCell id="6VzcK8M6HeqveQFIyyPi-2" value="Player" style="ellipse;whiteSpace=wrap;html=1;strokeColor=#004C99;" vertex="1" parent="1">
          <mxGeometry x="230" y="210" width="120" height="80" as="geometry" />
        </mxCell>
        <mxCell id="6VzcK8M6HeqveQFIyyPi-3" value="Battle" style="ellipse;whiteSpace=wrap;html=1;strokeColor=#004C99;" vertex="1" parent="1">
          <mxGeometry x="474" y="210" width="120" height="80" as="geometry" />
        </mxCell>
        <mxCell id="6VzcK8M6HeqveQFIyyPi-4" value="World ?" style="ellipse;whiteSpace=wrap;html=1;strokeColor=#F01111;" vertex="1" parent="1">
          <mxGeometry x="80" y="120" width="120" height="80" as="geometry" />
        </mxCell>
        <mxCell id="6VzcK8M6HeqveQFIyyPi-5" value="Characters" style="ellipse;whiteSpace=wrap;html=1;strokeColor=#004C99;" vertex="1" parent="1">
          <mxGeometry x="350" y="350" width="120" height="80" as="geometry" />
        </mxCell>
        <mxCell id="6VzcK8M6HeqveQFIyyPi-6" value="" style="endArrow=classic;html=1;rounded=0;exitX=0.5;exitY=1;exitDx=0;exitDy=0;entryX=0.775;entryY=0.05;entryDx=0;entryDy=0;entryPerimeter=0;" edge="1" parent="1" source="6VzcK8M6HeqveQFIyyPi-1" target="6VzcK8M6HeqveQFIyyPi-2">
          <mxGeometry width="50" height="50" relative="1" as="geometry">
            <mxPoint x="364" y="280" as="sourcePoint" />
            <mxPoint x="414" y="230" as="targetPoint" />
          </mxGeometry>
        </mxCell>
        <mxCell id="6VzcK8M6HeqveQFIyyPi-7" value="" style="endArrow=classic;html=1;rounded=0;entryX=0.225;entryY=0.025;entryDx=0;entryDy=0;entryPerimeter=0;exitX=0.5;exitY=1;exitDx=0;exitDy=0;" edge="1" parent="1" source="6VzcK8M6HeqveQFIyyPi-1" target="6VzcK8M6HeqveQFIyyPi-3">
          <mxGeometry width="50" height="50" relative="1" as="geometry">
            <mxPoint x="390" y="410" as="sourcePoint" />
            <mxPoint x="440" y="360" as="targetPoint" />
          </mxGeometry>
        </mxCell>
        <mxCell id="6VzcK8M6HeqveQFIyyPi-8" value="" style="endArrow=classic;html=1;rounded=0;entryX=0.925;entryY=0.238;entryDx=0;entryDy=0;entryPerimeter=0;" edge="1" parent="1" target="6VzcK8M6HeqveQFIyyPi-4">
          <mxGeometry width="50" height="50" relative="1" as="geometry">
            <mxPoint x="350" y="120" as="sourcePoint" />
            <mxPoint x="440" y="360" as="targetPoint" />
          </mxGeometry>
        </mxCell>
        <mxCell id="6VzcK8M6HeqveQFIyyPi-9" value="" style="endArrow=classic;html=1;rounded=0;entryX=0.233;entryY=0.038;entryDx=0;entryDy=0;entryPerimeter=0;exitX=0.75;exitY=0.95;exitDx=0;exitDy=0;exitPerimeter=0;" edge="1" parent="1" source="6VzcK8M6HeqveQFIyyPi-2" target="6VzcK8M6HeqveQFIyyPi-5">
          <mxGeometry width="50" height="50" relative="1" as="geometry">
            <mxPoint x="390" y="410" as="sourcePoint" />
            <mxPoint x="440" y="360" as="targetPoint" />
          </mxGeometry>
        </mxCell>
        <mxCell id="6VzcK8M6HeqveQFIyyPi-10" value="" style="endArrow=classic;html=1;rounded=0;exitX=0.267;exitY=0.963;exitDx=0;exitDy=0;exitPerimeter=0;entryX=0.783;entryY=0.038;entryDx=0;entryDy=0;entryPerimeter=0;" edge="1" parent="1" source="6VzcK8M6HeqveQFIyyPi-3" target="6VzcK8M6HeqveQFIyyPi-5">
          <mxGeometry width="50" height="50" relative="1" as="geometry">
            <mxPoint x="390" y="410" as="sourcePoint" />
            <mxPoint x="450" y="350" as="targetPoint" />
          </mxGeometry>
        </mxCell>
        <mxCell id="6VzcK8M6HeqveQFIyyPi-11" value="" style="endArrow=classic;html=1;rounded=0;entryX=0.058;entryY=0.188;entryDx=0;entryDy=0;entryPerimeter=0;exitX=1;exitY=1;exitDx=0;exitDy=0;" edge="1" parent="1" source="6VzcK8M6HeqveQFIyyPi-4" target="6VzcK8M6HeqveQFIyyPi-2">
          <mxGeometry width="50" height="50" relative="1" as="geometry">
            <mxPoint x="390" y="410" as="sourcePoint" />
            <mxPoint x="440" y="360" as="targetPoint" />
          </mxGeometry>
        </mxCell>
        <mxCell id="6VzcK8M6HeqveQFIyyPi-12" value="&lt;div&gt;Spells&lt;/div&gt;&lt;div&gt;DB&lt;br&gt;&lt;/div&gt;" style="whiteSpace=wrap;html=1;aspect=fixed;strokeColor=#FFFF66;" vertex="1" parent="1">
          <mxGeometry x="430" y="510" width="100" height="100" as="geometry" />
        </mxCell>
        <mxCell id="6VzcK8M6HeqveQFIyyPi-13" value="" style="endArrow=classic;html=1;rounded=0;entryX=0.5;entryY=0;entryDx=0;entryDy=0;exitX=0.742;exitY=0.95;exitDx=0;exitDy=0;exitPerimeter=0;" edge="1" parent="1" source="6VzcK8M6HeqveQFIyyPi-5" target="6VzcK8M6HeqveQFIyyPi-12">
          <mxGeometry width="50" height="50" relative="1" as="geometry">
            <mxPoint x="390" y="410" as="sourcePoint" />
            <mxPoint x="440" y="360" as="targetPoint" />
          </mxGeometry>
        </mxCell>
        <mxCell id="6VzcK8M6HeqveQFIyyPi-16" value="&lt;div&gt;Characters &lt;br&gt;&lt;/div&gt;&lt;div&gt;DB&lt;br&gt;&lt;/div&gt;" style="whiteSpace=wrap;html=1;aspect=fixed;" vertex="1" parent="1">
          <mxGeometry x="290" y="510" width="100" height="100" as="geometry" />
        </mxCell>
        <mxCell id="6VzcK8M6HeqveQFIyyPi-17" value="" style="endArrow=classic;html=1;rounded=0;entryX=0.61;entryY=-0.06;entryDx=0;entryDy=0;entryPerimeter=0;exitX=0.275;exitY=0.95;exitDx=0;exitDy=0;exitPerimeter=0;" edge="1" parent="1" source="6VzcK8M6HeqveQFIyyPi-5" target="6VzcK8M6HeqveQFIyyPi-16">
          <mxGeometry width="50" height="50" relative="1" as="geometry">
            <mxPoint x="390" y="350" as="sourcePoint" />
            <mxPoint x="440" y="300" as="targetPoint" />
          </mxGeometry>
        </mxCell>
      </root>
    </mxGraphModel>
  </diagram>
</mxfile>
